HIERARCHY
ROOT hip
{
	OFFSET 0.000000 0.000000 0.000000 
	CHANNELS 6 Xposition Yposition Zposition Xrotation Zrotation Yrotation
	JOINT abdomen
	{
		OFFSET 0.000000 3.402643 0.000000 
		CHANNELS 3 Xrotation Zrotation Yrotation
		JOINT chest
		{
			OFFSET 0.000000 8.438565 -0.680529 
			CHANNELS 3 Xrotation Zrotation Yrotation
			JOINT neck
			{
				OFFSET 0.000000 10.207942 -0.272212 
				CHANNELS 3 Xrotation Zrotation Yrotation
				JOINT head
				{
					OFFSET 0.000000 3.130431 0.000000 
					CHANNELS 3 Xrotation Zrotation Yrotation
					End Site
					{
						OFFSET 0.000000 3.130435 0.000000 
					}
				}
			}
			JOINT lCollar
			{
				OFFSET 3.470700 6.669187 -0.816635 
				CHANNELS 3 Yrotation Zrotation Xrotation
				JOINT lShldr
				{
					OFFSET 3.198488 0.000000 0.000000 
					CHANNELS 3 Zrotation Yrotation Xrotation
					JOINT lForeArm
					{
						OFFSET 10.139888 0.000000 0.000000 
						CHANNELS 3 Yrotation Zrotation Xrotation
						JOINT lHand
						{
							OFFSET 8.370511 0.000000 0.000000 
							CHANNELS 3 Zrotation Yrotation Xrotation
							End Site
							{
								OFFSET 4.083176 0.000000 0.000000 
							}
						}
					}
				}
			}
			JOINT rCollar
			{
				OFFSET -3.470700 6.669187 -0.816635 
				CHANNELS 3 Yrotation Zrotation Xrotation
				JOINT rShldr
				{
					OFFSET -3.198488 0.000000 0.000000 
					CHANNELS 3 Zrotation Yrotation Xrotation
					JOINT rForeArm
					{
						OFFSET -10.139888 0.000000 0.000000 
						CHANNELS 3 Yrotation Zrotation Xrotation
						JOINT rHand
						{
							OFFSET -8.370511 0.000000 0.000000 
							CHANNELS 3 Zrotation Yrotation Xrotation
							End Site
							{
								OFFSET -4.083176 0.000000 0.000000 
							}
						}
					}
				}
			}
		}
	}
	JOINT lThigh
	{
		OFFSET 5.308129 -1.633274 1.361059 
		CHANNELS 3 Xrotation Zrotation Yrotation
		JOINT lShin
		{
			OFFSET -2.041588 -20.007561 0.000000 
			CHANNELS 3 Xrotation Zrotation Yrotation
			JOINT lFoot
			{
				OFFSET 0.000000 -19.190928 -1.224953 
				CHANNELS 3 Xrotation Yrotation Zrotation
				End Site
				{
					OFFSET 0.000000 -2.449906 4.627600 
				}
			}
		}
	}
	JOINT rThigh
	{
		OFFSET -5.308129 -1.633274 1.361059 
		CHANNELS 3 Xrotation Zrotation Yrotation
		JOINT rShin
		{
			OFFSET 2.041588 -20.007561 0.000000 
			CHANNELS 3 Xrotation Zrotation Yrotation
			JOINT rFoot
			{
				OFFSET 0.000000 -19.190928 -1.224953 
				CHANNELS 3 Xrotation Yrotation Zrotation
				End Site
				{
					OFFSET 0.000000 -2.449906 4.627600 
				}
			}
		}
	}
}
MOTION
Frames: 8
Frame Time: 0.016667
-0.016995 49.631081 1.398114 -11.848071 -2.449320 -2.228701 34.448479 -0.185489 1.435539 -18.604429 9.636320 1.277951 -6.720047 1.278414 2.129466 8.383277 -8.398002 2.842221 -2.491140 -5.302310 -0.009715 -77.500885 15.383709 5.253032 -41.564865 4.381941 59.075905 -16.023937 15.421039 -4.374656 11.708560 -2.541044 -0.009553 69.786179 -2.597059 8.210123 43.575424 -2.991458 35.048187 -5.521837 -4.180737 0.393707 -18.156075 9.252920 5.105969 53.195724 0.027097 -3.604388 18.132826 -4.956563 -10.742781 1.971738 3.192044 -0.006408 28.112116 1.219640 2.380483 -2.209961 6.985211 12.532671 
0.053732 49.579689 2.208532 -11.773738 -2.808496 -3.060621 34.587776 -0.058557 2.021483 -18.630423 9.175282 1.791671 -6.620181 1.356511 2.100408 7.973153 -8.368670 2.851885 -2.598550 -5.233932 -0.009715 -77.257187 16.619051 5.349645 -41.385136 4.378497 58.965691 -16.043041 15.441015 -4.376001 11.728114 -2.404329 -0.009553 69.203972 -0.600238 8.923307 44.350300 -2.984367 35.126663 -5.520528 -3.986331 0.374973 -18.777914 9.462070 5.507731 48.680874 -0.235693 -3.435048 17.229214 -4.492397 -10.938969 2.387908 3.284854 0.386086 29.265390 1.180590 2.449586 -2.943659 7.458683 12.653600 
0.107692 49.504681 3.038891 -11.693042 -3.245091 -3.726890 34.673141 0.117073 2.529312 -18.586502 8.850973 2.204380 -6.656975 1.405288 2.119940 7.754555 -8.329371 2.890538 -2.637608 -5.204629 -0.009715 -77.095444 17.585667 5.270856 -41.106384 4.383539 59.026009 -16.282007 15.345262 -4.428894 11.747656 -2.345738 -0.009553 68.695915 1.174469 9.275279 45.087719 -2.977743 35.088696 -5.480684 -3.879654 0.362024 -18.902817 9.704814 5.646854 43.959354 -0.481354 -3.241560 16.307261 -3.686219 -11.214035 2.880188 3.456054 0.656259 30.290499 1.126838 2.546833 -3.467859 7.922337 12.733147 
0.161643 49.429676 3.869203 -11.611293 -3.680538 -4.404257 34.761616 0.292557 3.037170 -18.545835 8.526320 2.626842 -6.683969 1.454064 2.139470 7.534588 -8.290001 2.940267 -2.666899 -5.175327 -0.009715 -76.938805 18.553194 5.193181 -40.827377 4.389138 59.084915 -16.528305 15.251370 -4.472035 11.767199 -2.277383 -0.009553 68.194992 2.947224 9.609715 45.821564 -2.976351 35.055592 -5.440870 -3.772962 0.349220 -19.017553 9.947261 5.766053 39.237194 -0.734545 -2.995512 15.414031 -2.881621 -11.486174 3.365306 3.609116 0.945636 31.315693 1.072770 2.633475 -4.019736 8.370910 12.855499 
0.209962 49.331051 4.752115 -11.589161 -4.057698 -4.856456 34.793491 0.467921 3.408329 -18.496889 8.270710 2.911278 -6.660892 1.541884 2.149236 7.446008 -8.221516 2.969266 -2.705947 -5.087430 -0.009716 -76.949707 19.308800 4.814732 -40.349472 4.400246 59.470566 -16.771370 15.119987 -4.503598 11.806267 -2.238326 -0.009552 67.878746 4.284868 9.587564 46.546650 -2.973481 35.007084 -5.499590 -3.772603 0.353075 -18.616611 10.054298 5.645941 34.627903 -0.948989 -2.785214 14.888700 -2.062766 -11.704733 3.959124 3.725233 1.165792 32.312855 1.028795 2.672024 -4.371512 8.808255 12.943834 
0.258277 49.232430 5.634998 -11.560894 -4.443893 -5.299812 34.818409 0.652881 3.769843 -18.440733 8.015026 3.195759 -6.637508 1.629692 2.169035 7.356100 -8.152959 3.007936 -2.735227 -4.989769 -0.009718 -76.959015 20.070879 4.446896 -39.871696 4.417290 59.854866 -17.014988 14.997953 -4.536898 11.845339 -2.189504 -0.009551 67.561348 5.611650 9.556141 47.280781 -2.972041 34.964809 -5.568157 -3.781899 0.358518 -18.230989 10.155301 5.479068 30.046518 -1.143822 -2.519245 14.339040 -1.271233 -11.924524 4.569658 3.837376 1.388201 33.319363 0.979739 2.718761 -4.720754 9.254092 13.038859 
0.310923 49.123234 6.548415 -11.543536 -4.742625 -5.644435 34.782043 0.779277 4.072685 -18.391266 7.779100 3.440248 -6.556717 1.707772 2.159281 7.310895 -8.084693 3.007943 -2.784046 -4.940932 -0.009718 -76.954208 20.744471 3.972907 -39.344955 4.435993 60.320255 -17.158449 14.893007 -4.546961 11.855108 -2.160210 -0.009551 67.321754 6.665717 9.362412 47.981197 -2.969950 34.911079 -5.636116 -3.694003 0.354415 -17.069126 10.096847 5.127077 24.697626 -1.348395 -2.203703 14.784308 -0.495182 -12.119325 5.213647 3.798016 1.491744 34.295540 0.920987 2.789665 -4.877702 9.797116 13.132156 
0.363561 49.014038 7.461843 -11.521689 -5.040739 -6.000556 34.747021 0.905557 4.375688 -18.343824 7.543152 3.684792 -6.485044 1.795600 2.159285 7.264316 -8.016356 3.017615 -2.823101 -4.892097 -0.009718 -76.960396 21.408300 3.496226 -38.831165 4.460562 60.779751 -17.301062 14.778788 -4.551221 11.864881 -2.121148 -0.009550 67.082848 7.712903 9.153118 48.691639 -2.956545 34.858013 -5.713858 -3.606062 0.350715 -15.915149 10.056596 4.761633 19.358946 -1.536730 -1.871212 15.191973 0.293452 -12.298288 5.858825 3.759524 1.614730 35.281395 0.891506 2.849463 -5.018360 10.318254 13.183208 
